<mxfile host="Electron" modified="2024-02-25T10:31:02.938Z" agent="Mozilla/5.0 (Windows NT 10.0; Win64; x64) AppleWebKit/537.36 (KHTML, like Gecko) draw.io/23.1.5 Chrome/120.0.6099.109 Electron/28.1.0 Safari/537.36" etag="eWcIUVeH84CtzBVYGN54" version="23.1.5" type="device">
  <diagram name="Страница — 1" id="jITcFAyx64orBRBXR5UT">
    <mxGraphModel dx="1424" dy="1670" grid="1" gridSize="10" guides="1" tooltips="1" connect="1" arrows="1" fold="1" page="1" pageScale="1" pageWidth="827" pageHeight="1169" math="0" shadow="0">
      <root>
        <mxCell id="0" />
        <mxCell id="1" parent="0" />
        <mxCell id="zO58v0rqQoPorFve-_O9-2" style="edgeStyle=orthogonalEdgeStyle;rounded=0;orthogonalLoop=1;jettySize=auto;html=1;exitX=0.5;exitY=1;exitDx=0;exitDy=0;" edge="1" parent="1" source="zO58v0rqQoPorFve-_O9-1">
          <mxGeometry relative="1" as="geometry">
            <mxPoint x="320" y="80" as="targetPoint" />
          </mxGeometry>
        </mxCell>
        <mxCell id="zO58v0rqQoPorFve-_O9-1" value="void desk_print(int n, int curs)" style="ellipse;whiteSpace=wrap;html=1;" vertex="1" parent="1">
          <mxGeometry x="220" y="20" width="200" height="40" as="geometry" />
        </mxCell>
        <mxCell id="zO58v0rqQoPorFve-_O9-4" style="edgeStyle=orthogonalEdgeStyle;rounded=0;orthogonalLoop=1;jettySize=auto;html=1;exitX=0.5;exitY=1;exitDx=0;exitDy=0;" edge="1" parent="1" source="zO58v0rqQoPorFve-_O9-3" target="zO58v0rqQoPorFve-_O9-5">
          <mxGeometry relative="1" as="geometry">
            <mxPoint x="320" y="160" as="targetPoint" />
          </mxGeometry>
        </mxCell>
        <mxCell id="zO58v0rqQoPorFve-_O9-3" value="cout &amp;lt;&amp;lt; &quot;&amp;nbsp; &amp;nbsp;A&amp;nbsp; &amp;nbsp;B&amp;nbsp; &amp;nbsp;C&amp;nbsp; &amp;nbsp;D&amp;nbsp; &amp;nbsp;E&amp;nbsp; &amp;nbsp;F&amp;nbsp; &amp;nbsp;G&amp;nbsp; &amp;nbsp;H&quot; &amp;lt;&amp;lt; endl;" style="shape=parallelogram;html=1;strokeWidth=2;perimeter=parallelogramPerimeter;whiteSpace=wrap;rounded=1;arcSize=12;size=0.0661764705882353;" vertex="1" parent="1">
          <mxGeometry x="170" y="80" width="300" height="40" as="geometry" />
        </mxCell>
        <mxCell id="zO58v0rqQoPorFve-_O9-6" style="edgeStyle=orthogonalEdgeStyle;rounded=0;orthogonalLoop=1;jettySize=auto;html=1;exitX=0.5;exitY=1;exitDx=0;exitDy=0;" edge="1" parent="1" source="zO58v0rqQoPorFve-_O9-5">
          <mxGeometry relative="1" as="geometry">
            <mxPoint x="320" y="200" as="targetPoint" />
          </mxGeometry>
        </mxCell>
        <mxCell id="zO58v0rqQoPorFve-_O9-5" value="cout &lt;&lt; &quot; \xDA&quot;;" style="shape=parallelogram;html=1;strokeWidth=2;perimeter=parallelogramPerimeter;whiteSpace=wrap;rounded=1;arcSize=12;size=0.16666666666666666;" vertex="1" parent="1">
          <mxGeometry x="240" y="140" width="160" height="40" as="geometry" />
        </mxCell>
        <mxCell id="zO58v0rqQoPorFve-_O9-7" style="edgeStyle=orthogonalEdgeStyle;rounded=0;orthogonalLoop=1;jettySize=auto;html=1;exitX=0.5;exitY=1;exitDx=0;exitDy=0;" edge="1" source="zO58v0rqQoPorFve-_O9-9" parent="1">
          <mxGeometry relative="1" as="geometry">
            <mxPoint x="320" y="280" as="targetPoint" />
          </mxGeometry>
        </mxCell>
        <mxCell id="zO58v0rqQoPorFve-_O9-8" style="edgeStyle=orthogonalEdgeStyle;rounded=0;orthogonalLoop=1;jettySize=auto;html=1;exitX=1;exitY=0.5;exitDx=0;exitDy=0;" edge="1" source="zO58v0rqQoPorFve-_O9-9" parent="1" target="zO58v0rqQoPorFve-_O9-15">
          <mxGeometry relative="1" as="geometry">
            <mxPoint x="570" y="250" as="targetPoint" />
            <Array as="points">
              <mxPoint x="570" y="220" />
            </Array>
          </mxGeometry>
        </mxCell>
        <mxCell id="zO58v0rqQoPorFve-_O9-9" value="for (int i = 0; i &amp;lt; 7; ++i)" style="verticalLabelPosition=middle;verticalAlign=middle;html=1;shape=hexagon;perimeter=hexagonPerimeter2;arcSize=6;size=0.15;labelPosition=center;align=center;" vertex="1" parent="1">
          <mxGeometry x="220" y="200" width="200" height="40" as="geometry" />
        </mxCell>
        <mxCell id="zO58v0rqQoPorFve-_O9-10" value="1" style="text;html=1;strokeColor=none;fillColor=none;align=center;verticalAlign=middle;whiteSpace=wrap;rounded=0;" vertex="1" parent="1">
          <mxGeometry x="290" y="240" width="30" height="30" as="geometry" />
        </mxCell>
        <mxCell id="zO58v0rqQoPorFve-_O9-11" value="{" style="text;html=1;strokeColor=none;fillColor=none;align=center;verticalAlign=middle;whiteSpace=wrap;rounded=0;" vertex="1" parent="1">
          <mxGeometry x="320" y="240" width="30" height="30" as="geometry" />
        </mxCell>
        <mxCell id="zO58v0rqQoPorFve-_O9-12" value="0" style="text;html=1;strokeColor=none;fillColor=none;align=center;verticalAlign=middle;whiteSpace=wrap;rounded=0;" vertex="1" parent="1">
          <mxGeometry x="420" y="190" width="30" height="30" as="geometry" />
        </mxCell>
        <mxCell id="zO58v0rqQoPorFve-_O9-14" style="edgeStyle=orthogonalEdgeStyle;rounded=0;orthogonalLoop=1;jettySize=auto;html=1;exitX=0.5;exitY=1;exitDx=0;exitDy=0;entryX=0;entryY=0.5;entryDx=0;entryDy=0;" edge="1" parent="1" source="zO58v0rqQoPorFve-_O9-13" target="zO58v0rqQoPorFve-_O9-9">
          <mxGeometry relative="1" as="geometry">
            <Array as="points">
              <mxPoint x="320" y="340" />
              <mxPoint x="180" y="340" />
              <mxPoint x="180" y="220" />
            </Array>
          </mxGeometry>
        </mxCell>
        <mxCell id="zO58v0rqQoPorFve-_O9-13" value="cout &amp;lt;&amp;lt; &quot;\xC4\xC4\xC4&quot; &amp;lt;&amp;lt; &#39;\xC2&#39;;" style="shape=parallelogram;html=1;strokeWidth=2;perimeter=parallelogramPerimeter;whiteSpace=wrap;rounded=1;arcSize=12;size=0.16666666666666666;" vertex="1" parent="1">
          <mxGeometry x="200" y="280" width="240" height="40" as="geometry" />
        </mxCell>
        <mxCell id="zO58v0rqQoPorFve-_O9-16" style="edgeStyle=orthogonalEdgeStyle;rounded=0;orthogonalLoop=1;jettySize=auto;html=1;exitX=0.5;exitY=1;exitDx=0;exitDy=0;" edge="1" parent="1" source="zO58v0rqQoPorFve-_O9-15">
          <mxGeometry relative="1" as="geometry">
            <mxPoint x="320" y="370" as="targetPoint" />
            <Array as="points">
              <mxPoint x="570" y="350" />
              <mxPoint x="320" y="350" />
            </Array>
          </mxGeometry>
        </mxCell>
        <mxCell id="zO58v0rqQoPorFve-_O9-15" value="cout &lt;&lt; &quot;\xC4\xC4\xC4\xBF&quot; &lt;&lt; endl;" style="shape=parallelogram;html=1;strokeWidth=2;perimeter=parallelogramPerimeter;whiteSpace=wrap;rounded=1;arcSize=12;size=0.16666666666666666;" vertex="1" parent="1">
          <mxGeometry x="440" y="280" width="260" height="40" as="geometry" />
        </mxCell>
        <mxCell id="zO58v0rqQoPorFve-_O9-17" style="edgeStyle=orthogonalEdgeStyle;rounded=0;orthogonalLoop=1;jettySize=auto;html=1;exitX=0.5;exitY=1;exitDx=0;exitDy=0;" edge="1" source="zO58v0rqQoPorFve-_O9-19" parent="1">
          <mxGeometry relative="1" as="geometry">
            <mxPoint x="320" y="450" as="targetPoint" />
          </mxGeometry>
        </mxCell>
        <mxCell id="zO58v0rqQoPorFve-_O9-18" style="edgeStyle=orthogonalEdgeStyle;rounded=0;orthogonalLoop=1;jettySize=auto;html=1;exitX=1;exitY=0.5;exitDx=0;exitDy=0;entryX=0.5;entryY=0;entryDx=0;entryDy=0;" edge="1" source="zO58v0rqQoPorFve-_O9-19" parent="1" target="zO58v0rqQoPorFve-_O9-109">
          <mxGeometry relative="1" as="geometry">
            <mxPoint x="480" y="390" as="targetPoint" />
            <Array as="points">
              <mxPoint x="1210" y="390" />
            </Array>
          </mxGeometry>
        </mxCell>
        <mxCell id="zO58v0rqQoPorFve-_O9-19" value="for (int i = 0; i &amp;lt; 7; ++i)" style="verticalLabelPosition=middle;verticalAlign=middle;html=1;shape=hexagon;perimeter=hexagonPerimeter2;arcSize=6;size=0.15;labelPosition=center;align=center;" vertex="1" parent="1">
          <mxGeometry x="220" y="370" width="200" height="40" as="geometry" />
        </mxCell>
        <mxCell id="zO58v0rqQoPorFve-_O9-20" value="1" style="text;html=1;strokeColor=none;fillColor=none;align=center;verticalAlign=middle;whiteSpace=wrap;rounded=0;" vertex="1" parent="1">
          <mxGeometry x="290" y="410" width="30" height="30" as="geometry" />
        </mxCell>
        <mxCell id="zO58v0rqQoPorFve-_O9-21" value="{" style="text;html=1;strokeColor=none;fillColor=none;align=center;verticalAlign=middle;whiteSpace=wrap;rounded=0;" vertex="1" parent="1">
          <mxGeometry x="320" y="410" width="30" height="30" as="geometry" />
        </mxCell>
        <mxCell id="zO58v0rqQoPorFve-_O9-22" value="0" style="text;html=1;strokeColor=none;fillColor=none;align=center;verticalAlign=middle;whiteSpace=wrap;rounded=0;" vertex="1" parent="1">
          <mxGeometry x="420" y="360" width="30" height="30" as="geometry" />
        </mxCell>
        <mxCell id="zO58v0rqQoPorFve-_O9-24" style="edgeStyle=orthogonalEdgeStyle;rounded=0;orthogonalLoop=1;jettySize=auto;html=1;exitX=0.5;exitY=1;exitDx=0;exitDy=0;" edge="1" parent="1" source="zO58v0rqQoPorFve-_O9-23">
          <mxGeometry relative="1" as="geometry">
            <mxPoint x="319.6470588235295" y="510" as="targetPoint" />
          </mxGeometry>
        </mxCell>
        <mxCell id="zO58v0rqQoPorFve-_O9-23" value="cout &amp;lt;&amp;lt; 8 - i &amp;lt;&amp;lt; &quot;\xB3&quot;;" style="shape=parallelogram;html=1;strokeWidth=2;perimeter=parallelogramPerimeter;whiteSpace=wrap;rounded=1;arcSize=12;size=0.16666666666666666;" vertex="1" parent="1">
          <mxGeometry x="240" y="450" width="160" height="40" as="geometry" />
        </mxCell>
        <mxCell id="zO58v0rqQoPorFve-_O9-25" style="edgeStyle=orthogonalEdgeStyle;rounded=0;orthogonalLoop=1;jettySize=auto;html=1;exitX=0.5;exitY=1;exitDx=0;exitDy=0;" edge="1" source="zO58v0rqQoPorFve-_O9-27" parent="1">
          <mxGeometry relative="1" as="geometry">
            <mxPoint x="320" y="590" as="targetPoint" />
          </mxGeometry>
        </mxCell>
        <mxCell id="zO58v0rqQoPorFve-_O9-26" style="edgeStyle=orthogonalEdgeStyle;rounded=0;orthogonalLoop=1;jettySize=auto;html=1;exitX=1;exitY=0.5;exitDx=0;exitDy=0;entryX=0;entryY=0.5;entryDx=0;entryDy=0;" edge="1" source="zO58v0rqQoPorFve-_O9-27" parent="1" target="zO58v0rqQoPorFve-_O9-89">
          <mxGeometry relative="1" as="geometry">
            <mxPoint x="480" y="530" as="targetPoint" />
            <Array as="points" />
          </mxGeometry>
        </mxCell>
        <mxCell id="zO58v0rqQoPorFve-_O9-27" value="for (int j = 0; j &amp;lt; 8; ++j)" style="verticalLabelPosition=middle;verticalAlign=middle;html=1;shape=hexagon;perimeter=hexagonPerimeter2;arcSize=6;size=0.15;labelPosition=center;align=center;" vertex="1" parent="1">
          <mxGeometry x="220" y="510" width="200" height="40" as="geometry" />
        </mxCell>
        <mxCell id="zO58v0rqQoPorFve-_O9-28" value="1" style="text;html=1;strokeColor=none;fillColor=none;align=center;verticalAlign=middle;whiteSpace=wrap;rounded=0;" vertex="1" parent="1">
          <mxGeometry x="290" y="550" width="30" height="30" as="geometry" />
        </mxCell>
        <mxCell id="zO58v0rqQoPorFve-_O9-29" value="{" style="text;html=1;strokeColor=none;fillColor=none;align=center;verticalAlign=middle;whiteSpace=wrap;rounded=0;" vertex="1" parent="1">
          <mxGeometry x="320" y="550" width="30" height="30" as="geometry" />
        </mxCell>
        <mxCell id="zO58v0rqQoPorFve-_O9-30" value="0" style="text;html=1;strokeColor=none;fillColor=none;align=center;verticalAlign=middle;whiteSpace=wrap;rounded=0;" vertex="1" parent="1">
          <mxGeometry x="420" y="500" width="30" height="30" as="geometry" />
        </mxCell>
        <mxCell id="zO58v0rqQoPorFve-_O9-31" style="edgeStyle=orthogonalEdgeStyle;rounded=0;orthogonalLoop=1;jettySize=auto;html=1;exitX=0.5;exitY=1;exitDx=0;exitDy=0;exitPerimeter=0;entryX=0;entryY=0.5;entryDx=0;entryDy=0;" edge="1" source="zO58v0rqQoPorFve-_O9-32" target="zO58v0rqQoPorFve-_O9-34" parent="1">
          <mxGeometry relative="1" as="geometry">
            <mxPoint x="315.4761904761905" y="809.9999999999995" as="targetPoint" />
          </mxGeometry>
        </mxCell>
        <mxCell id="zO58v0rqQoPorFve-_O9-32" value="switch" style="strokeWidth=2;html=1;shape=mxgraph.flowchart.decision;whiteSpace=wrap;" vertex="1" parent="1">
          <mxGeometry x="225" y="589.9999999999995" width="190" height="60" as="geometry" />
        </mxCell>
        <mxCell id="zO58v0rqQoPorFve-_O9-33" style="edgeStyle=orthogonalEdgeStyle;rounded=0;orthogonalLoop=1;jettySize=auto;html=1;exitX=1;exitY=0.5;exitDx=0;exitDy=0;entryX=0.5;entryY=0;entryDx=0;entryDy=0;entryPerimeter=0;" edge="1" source="zO58v0rqQoPorFve-_O9-34" parent="1" target="zO58v0rqQoPorFve-_O9-38">
          <mxGeometry relative="1" as="geometry">
            <mxPoint x="485" y="689.9999999999995" as="targetPoint" />
            <Array as="points">
              <mxPoint x="640" y="690" />
            </Array>
          </mxGeometry>
        </mxCell>
        <mxCell id="zO58v0rqQoPorFve-_O9-34" value="case&amp;nbsp;0:" style="rounded=1;whiteSpace=wrap;html=1;absoluteArcSize=1;arcSize=14;strokeWidth=2;" vertex="1" parent="1">
          <mxGeometry x="355" y="669.9999999999995" width="100" height="40" as="geometry" />
        </mxCell>
        <mxCell id="zO58v0rqQoPorFve-_O9-36" style="edgeStyle=orthogonalEdgeStyle;rounded=0;orthogonalLoop=1;jettySize=auto;html=1;exitX=0;exitY=0.5;exitDx=0;exitDy=0;exitPerimeter=0;entryX=0.5;entryY=0;entryDx=0;entryDy=0;" edge="1" source="zO58v0rqQoPorFve-_O9-38" parent="1" target="zO58v0rqQoPorFve-_O9-41">
          <mxGeometry relative="1" as="geometry">
            <mxPoint x="495" y="770" as="targetPoint" />
          </mxGeometry>
        </mxCell>
        <mxCell id="zO58v0rqQoPorFve-_O9-37" style="edgeStyle=orthogonalEdgeStyle;rounded=0;orthogonalLoop=1;jettySize=auto;html=1;exitX=1;exitY=0.5;exitDx=0;exitDy=0;exitPerimeter=0;entryX=0.5;entryY=0;entryDx=0;entryDy=0;" edge="1" source="zO58v0rqQoPorFve-_O9-38" parent="1" target="zO58v0rqQoPorFve-_O9-42">
          <mxGeometry relative="1" as="geometry">
            <mxPoint x="775" y="770" as="targetPoint" />
            <Array as="points">
              <mxPoint x="780" y="730" />
            </Array>
          </mxGeometry>
        </mxCell>
        <mxCell id="zO58v0rqQoPorFve-_O9-38" value="if ((i == n + 1) &amp;amp;&amp;amp; (j == curs))" style="strokeWidth=2;html=1;shape=mxgraph.flowchart.decision;whiteSpace=wrap;" vertex="1" parent="1">
          <mxGeometry x="540" y="700" width="200" height="60" as="geometry" />
        </mxCell>
        <mxCell id="zO58v0rqQoPorFve-_O9-39" value="1" style="text;html=1;strokeColor=none;fillColor=none;align=center;verticalAlign=middle;whiteSpace=wrap;rounded=0;" vertex="1" parent="1">
          <mxGeometry x="505" y="700" width="30" height="30" as="geometry" />
        </mxCell>
        <mxCell id="zO58v0rqQoPorFve-_O9-40" value="0" style="text;html=1;strokeColor=none;fillColor=none;align=center;verticalAlign=middle;whiteSpace=wrap;rounded=0;" vertex="1" parent="1">
          <mxGeometry x="735" y="700" width="30" height="30" as="geometry" />
        </mxCell>
        <mxCell id="zO58v0rqQoPorFve-_O9-44" style="edgeStyle=orthogonalEdgeStyle;rounded=0;orthogonalLoop=1;jettySize=auto;html=1;exitX=0.5;exitY=1;exitDx=0;exitDy=0;" edge="1" parent="1" source="zO58v0rqQoPorFve-_O9-41">
          <mxGeometry relative="1" as="geometry">
            <mxPoint x="640" y="830" as="targetPoint" />
            <Array as="points">
              <mxPoint x="500" y="830" />
            </Array>
          </mxGeometry>
        </mxCell>
        <mxCell id="zO58v0rqQoPorFve-_O9-41" value="cout &amp;lt;&amp;lt; &quot;[ ]&quot;;" style="shape=parallelogram;html=1;strokeWidth=2;perimeter=parallelogramPerimeter;whiteSpace=wrap;rounded=1;arcSize=12;size=0.16666666666666666;" vertex="1" parent="1">
          <mxGeometry x="420" y="770" width="160" height="40" as="geometry" />
        </mxCell>
        <mxCell id="zO58v0rqQoPorFve-_O9-43" style="edgeStyle=orthogonalEdgeStyle;rounded=0;orthogonalLoop=1;jettySize=auto;html=1;exitX=0.5;exitY=1;exitDx=0;exitDy=0;" edge="1" parent="1" source="zO58v0rqQoPorFve-_O9-42">
          <mxGeometry relative="1" as="geometry">
            <mxPoint x="640" y="830" as="targetPoint" />
            <Array as="points">
              <mxPoint x="780" y="830" />
            </Array>
          </mxGeometry>
        </mxCell>
        <mxCell id="zO58v0rqQoPorFve-_O9-42" value="cout &amp;lt;&amp;lt; &quot;&amp;nbsp; &amp;nbsp;&quot;;" style="shape=parallelogram;html=1;strokeWidth=2;perimeter=parallelogramPerimeter;whiteSpace=wrap;rounded=1;arcSize=12;size=0.16666666666666666;" vertex="1" parent="1">
          <mxGeometry x="700" y="770" width="160" height="40" as="geometry" />
        </mxCell>
        <mxCell id="zO58v0rqQoPorFve-_O9-54" value="" style="endArrow=classic;html=1;rounded=0;" edge="1" parent="1">
          <mxGeometry width="50" height="50" relative="1" as="geometry">
            <mxPoint x="639.5800000000002" y="830" as="sourcePoint" />
            <mxPoint x="640" y="850" as="targetPoint" />
          </mxGeometry>
        </mxCell>
        <mxCell id="zO58v0rqQoPorFve-_O9-85" style="edgeStyle=orthogonalEdgeStyle;rounded=0;orthogonalLoop=1;jettySize=auto;html=1;exitX=1;exitY=0.5;exitDx=0;exitDy=0;" edge="1" parent="1" source="zO58v0rqQoPorFve-_O9-55">
          <mxGeometry relative="1" as="geometry">
            <mxPoint x="880" y="1360" as="targetPoint" />
          </mxGeometry>
        </mxCell>
        <mxCell id="zO58v0rqQoPorFve-_O9-55" value="break;" style="rounded=1;whiteSpace=wrap;html=1;absoluteArcSize=1;arcSize=14;strokeWidth=2;" vertex="1" parent="1">
          <mxGeometry x="590" y="850" width="100" height="40" as="geometry" />
        </mxCell>
        <mxCell id="zO58v0rqQoPorFve-_O9-56" style="edgeStyle=orthogonalEdgeStyle;rounded=0;orthogonalLoop=1;jettySize=auto;html=1;exitX=1;exitY=0.5;exitDx=0;exitDy=0;entryX=0.5;entryY=0;entryDx=0;entryDy=0;entryPerimeter=0;" edge="1" parent="1" source="zO58v0rqQoPorFve-_O9-57" target="zO58v0rqQoPorFve-_O9-60">
          <mxGeometry relative="1" as="geometry">
            <mxPoint x="485" y="909.9999999999995" as="targetPoint" />
            <Array as="points">
              <mxPoint x="640" y="910" />
            </Array>
          </mxGeometry>
        </mxCell>
        <mxCell id="zO58v0rqQoPorFve-_O9-57" value="case 1:" style="rounded=1;whiteSpace=wrap;html=1;absoluteArcSize=1;arcSize=14;strokeWidth=2;" vertex="1" parent="1">
          <mxGeometry x="355" y="889.9999999999995" width="100" height="40" as="geometry" />
        </mxCell>
        <mxCell id="zO58v0rqQoPorFve-_O9-58" style="edgeStyle=orthogonalEdgeStyle;rounded=0;orthogonalLoop=1;jettySize=auto;html=1;exitX=0;exitY=0.5;exitDx=0;exitDy=0;exitPerimeter=0;entryX=0.5;entryY=0;entryDx=0;entryDy=0;" edge="1" parent="1" source="zO58v0rqQoPorFve-_O9-60" target="zO58v0rqQoPorFve-_O9-64">
          <mxGeometry relative="1" as="geometry">
            <mxPoint x="495" y="990" as="targetPoint" />
          </mxGeometry>
        </mxCell>
        <mxCell id="zO58v0rqQoPorFve-_O9-59" style="edgeStyle=orthogonalEdgeStyle;rounded=0;orthogonalLoop=1;jettySize=auto;html=1;exitX=1;exitY=0.5;exitDx=0;exitDy=0;exitPerimeter=0;entryX=0.5;entryY=0;entryDx=0;entryDy=0;" edge="1" parent="1" source="zO58v0rqQoPorFve-_O9-60" target="zO58v0rqQoPorFve-_O9-66">
          <mxGeometry relative="1" as="geometry">
            <mxPoint x="775" y="990" as="targetPoint" />
            <Array as="points">
              <mxPoint x="780" y="950" />
            </Array>
          </mxGeometry>
        </mxCell>
        <mxCell id="zO58v0rqQoPorFve-_O9-60" value="if ((i == n + 1) &amp;amp;&amp;amp; (j == curs))" style="strokeWidth=2;html=1;shape=mxgraph.flowchart.decision;whiteSpace=wrap;" vertex="1" parent="1">
          <mxGeometry x="540" y="920" width="200" height="60" as="geometry" />
        </mxCell>
        <mxCell id="zO58v0rqQoPorFve-_O9-61" value="1" style="text;html=1;strokeColor=none;fillColor=none;align=center;verticalAlign=middle;whiteSpace=wrap;rounded=0;" vertex="1" parent="1">
          <mxGeometry x="505" y="920" width="30" height="30" as="geometry" />
        </mxCell>
        <mxCell id="zO58v0rqQoPorFve-_O9-62" value="0" style="text;html=1;strokeColor=none;fillColor=none;align=center;verticalAlign=middle;whiteSpace=wrap;rounded=0;" vertex="1" parent="1">
          <mxGeometry x="735" y="920" width="30" height="30" as="geometry" />
        </mxCell>
        <mxCell id="zO58v0rqQoPorFve-_O9-63" style="edgeStyle=orthogonalEdgeStyle;rounded=0;orthogonalLoop=1;jettySize=auto;html=1;exitX=0.5;exitY=1;exitDx=0;exitDy=0;" edge="1" parent="1" source="zO58v0rqQoPorFve-_O9-64">
          <mxGeometry relative="1" as="geometry">
            <mxPoint x="640" y="1050" as="targetPoint" />
            <Array as="points">
              <mxPoint x="500" y="1050" />
            </Array>
          </mxGeometry>
        </mxCell>
        <mxCell id="zO58v0rqQoPorFve-_O9-64" value="cout &amp;lt;&amp;lt; &quot;[\x78]&quot;;" style="shape=parallelogram;html=1;strokeWidth=2;perimeter=parallelogramPerimeter;whiteSpace=wrap;rounded=1;arcSize=12;size=0.16666666666666666;" vertex="1" parent="1">
          <mxGeometry x="420" y="990" width="160" height="40" as="geometry" />
        </mxCell>
        <mxCell id="zO58v0rqQoPorFve-_O9-65" style="edgeStyle=orthogonalEdgeStyle;rounded=0;orthogonalLoop=1;jettySize=auto;html=1;exitX=0.5;exitY=1;exitDx=0;exitDy=0;" edge="1" parent="1" source="zO58v0rqQoPorFve-_O9-66">
          <mxGeometry relative="1" as="geometry">
            <mxPoint x="640" y="1050" as="targetPoint" />
            <Array as="points">
              <mxPoint x="780" y="1050" />
            </Array>
          </mxGeometry>
        </mxCell>
        <mxCell id="zO58v0rqQoPorFve-_O9-66" value="else cout &amp;lt;&amp;lt; &quot; \x78 &quot;;" style="shape=parallelogram;html=1;strokeWidth=2;perimeter=parallelogramPerimeter;whiteSpace=wrap;rounded=1;arcSize=12;size=0.16666666666666666;" vertex="1" parent="1">
          <mxGeometry x="700" y="990" width="160" height="40" as="geometry" />
        </mxCell>
        <mxCell id="zO58v0rqQoPorFve-_O9-67" value="" style="endArrow=classic;html=1;rounded=0;" edge="1" parent="1">
          <mxGeometry width="50" height="50" relative="1" as="geometry">
            <mxPoint x="639.5800000000002" y="1050" as="sourcePoint" />
            <mxPoint x="640" y="1070" as="targetPoint" />
          </mxGeometry>
        </mxCell>
        <mxCell id="zO58v0rqQoPorFve-_O9-84" style="edgeStyle=orthogonalEdgeStyle;rounded=0;orthogonalLoop=1;jettySize=auto;html=1;exitX=1;exitY=0.5;exitDx=0;exitDy=0;" edge="1" parent="1" source="zO58v0rqQoPorFve-_O9-68">
          <mxGeometry relative="1" as="geometry">
            <mxPoint x="880" y="1360" as="targetPoint" />
          </mxGeometry>
        </mxCell>
        <mxCell id="zO58v0rqQoPorFve-_O9-68" value="break;" style="rounded=1;whiteSpace=wrap;html=1;absoluteArcSize=1;arcSize=14;strokeWidth=2;" vertex="1" parent="1">
          <mxGeometry x="590" y="1070" width="100" height="40" as="geometry" />
        </mxCell>
        <mxCell id="zO58v0rqQoPorFve-_O9-69" style="edgeStyle=orthogonalEdgeStyle;rounded=0;orthogonalLoop=1;jettySize=auto;html=1;exitX=1;exitY=0.5;exitDx=0;exitDy=0;entryX=0.5;entryY=0;entryDx=0;entryDy=0;entryPerimeter=0;" edge="1" parent="1" source="zO58v0rqQoPorFve-_O9-70" target="zO58v0rqQoPorFve-_O9-73">
          <mxGeometry relative="1" as="geometry">
            <mxPoint x="485" y="1129.9999999999995" as="targetPoint" />
            <Array as="points">
              <mxPoint x="640" y="1130" />
            </Array>
          </mxGeometry>
        </mxCell>
        <mxCell id="zO58v0rqQoPorFve-_O9-70" value="case 8:" style="rounded=1;whiteSpace=wrap;html=1;absoluteArcSize=1;arcSize=14;strokeWidth=2;" vertex="1" parent="1">
          <mxGeometry x="355" y="1109.9999999999995" width="100" height="40" as="geometry" />
        </mxCell>
        <mxCell id="zO58v0rqQoPorFve-_O9-71" style="edgeStyle=orthogonalEdgeStyle;rounded=0;orthogonalLoop=1;jettySize=auto;html=1;exitX=0;exitY=0.5;exitDx=0;exitDy=0;exitPerimeter=0;entryX=0.5;entryY=0;entryDx=0;entryDy=0;" edge="1" parent="1" source="zO58v0rqQoPorFve-_O9-73" target="zO58v0rqQoPorFve-_O9-77">
          <mxGeometry relative="1" as="geometry">
            <mxPoint x="495" y="1210" as="targetPoint" />
          </mxGeometry>
        </mxCell>
        <mxCell id="zO58v0rqQoPorFve-_O9-72" style="edgeStyle=orthogonalEdgeStyle;rounded=0;orthogonalLoop=1;jettySize=auto;html=1;exitX=1;exitY=0.5;exitDx=0;exitDy=0;exitPerimeter=0;entryX=0.5;entryY=0;entryDx=0;entryDy=0;" edge="1" parent="1" source="zO58v0rqQoPorFve-_O9-73" target="zO58v0rqQoPorFve-_O9-79">
          <mxGeometry relative="1" as="geometry">
            <mxPoint x="775" y="1210" as="targetPoint" />
            <Array as="points">
              <mxPoint x="780" y="1170" />
            </Array>
          </mxGeometry>
        </mxCell>
        <mxCell id="zO58v0rqQoPorFve-_O9-73" value="if ((i == n + 1) &amp;amp;&amp;amp; (j == curs))" style="strokeWidth=2;html=1;shape=mxgraph.flowchart.decision;whiteSpace=wrap;" vertex="1" parent="1">
          <mxGeometry x="540" y="1140" width="200" height="60" as="geometry" />
        </mxCell>
        <mxCell id="zO58v0rqQoPorFve-_O9-74" value="1" style="text;html=1;strokeColor=none;fillColor=none;align=center;verticalAlign=middle;whiteSpace=wrap;rounded=0;" vertex="1" parent="1">
          <mxGeometry x="505" y="1140" width="30" height="30" as="geometry" />
        </mxCell>
        <mxCell id="zO58v0rqQoPorFve-_O9-75" value="0" style="text;html=1;strokeColor=none;fillColor=none;align=center;verticalAlign=middle;whiteSpace=wrap;rounded=0;" vertex="1" parent="1">
          <mxGeometry x="735" y="1140" width="30" height="30" as="geometry" />
        </mxCell>
        <mxCell id="zO58v0rqQoPorFve-_O9-76" style="edgeStyle=orthogonalEdgeStyle;rounded=0;orthogonalLoop=1;jettySize=auto;html=1;exitX=0.5;exitY=1;exitDx=0;exitDy=0;" edge="1" parent="1" source="zO58v0rqQoPorFve-_O9-77">
          <mxGeometry relative="1" as="geometry">
            <mxPoint x="640" y="1270" as="targetPoint" />
            <Array as="points">
              <mxPoint x="500" y="1270" />
            </Array>
          </mxGeometry>
        </mxCell>
        <mxCell id="zO58v0rqQoPorFve-_O9-77" value="cout &amp;lt;&amp;lt; &quot;[\x51]&quot;;" style="shape=parallelogram;html=1;strokeWidth=2;perimeter=parallelogramPerimeter;whiteSpace=wrap;rounded=1;arcSize=12;size=0.16666666666666666;" vertex="1" parent="1">
          <mxGeometry x="420" y="1210" width="160" height="40" as="geometry" />
        </mxCell>
        <mxCell id="zO58v0rqQoPorFve-_O9-78" style="edgeStyle=orthogonalEdgeStyle;rounded=0;orthogonalLoop=1;jettySize=auto;html=1;exitX=0.5;exitY=1;exitDx=0;exitDy=0;" edge="1" parent="1" source="zO58v0rqQoPorFve-_O9-79">
          <mxGeometry relative="1" as="geometry">
            <mxPoint x="640" y="1270" as="targetPoint" />
            <Array as="points">
              <mxPoint x="780" y="1270" />
            </Array>
          </mxGeometry>
        </mxCell>
        <mxCell id="zO58v0rqQoPorFve-_O9-79" value="else cout &amp;lt;&amp;lt; &quot;&amp;nbsp;\x51&amp;nbsp;&quot;;" style="shape=parallelogram;html=1;strokeWidth=2;perimeter=parallelogramPerimeter;whiteSpace=wrap;rounded=1;arcSize=12;size=0.16666666666666666;" vertex="1" parent="1">
          <mxGeometry x="700" y="1210" width="160" height="40" as="geometry" />
        </mxCell>
        <mxCell id="zO58v0rqQoPorFve-_O9-80" value="" style="endArrow=classic;html=1;rounded=0;" edge="1" parent="1">
          <mxGeometry width="50" height="50" relative="1" as="geometry">
            <mxPoint x="639.5800000000002" y="1270" as="sourcePoint" />
            <mxPoint x="640" y="1290" as="targetPoint" />
          </mxGeometry>
        </mxCell>
        <mxCell id="zO58v0rqQoPorFve-_O9-86" style="edgeStyle=orthogonalEdgeStyle;rounded=0;orthogonalLoop=1;jettySize=auto;html=1;exitX=1;exitY=0.5;exitDx=0;exitDy=0;" edge="1" parent="1" source="zO58v0rqQoPorFve-_O9-81">
          <mxGeometry relative="1" as="geometry">
            <mxPoint x="880" y="1360" as="targetPoint" />
          </mxGeometry>
        </mxCell>
        <mxCell id="zO58v0rqQoPorFve-_O9-81" value="break;" style="rounded=1;whiteSpace=wrap;html=1;absoluteArcSize=1;arcSize=14;strokeWidth=2;" vertex="1" parent="1">
          <mxGeometry x="590" y="1290" width="100" height="40" as="geometry" />
        </mxCell>
        <mxCell id="zO58v0rqQoPorFve-_O9-82" value="" style="endArrow=classic;html=1;rounded=0;exitX=0.5;exitY=1;exitDx=0;exitDy=0;exitPerimeter=0;entryX=0;entryY=0.5;entryDx=0;entryDy=0;" edge="1" parent="1" source="zO58v0rqQoPorFve-_O9-32" target="zO58v0rqQoPorFve-_O9-57">
          <mxGeometry width="50" height="50" relative="1" as="geometry">
            <mxPoint x="390.0000000000001" y="790" as="sourcePoint" />
            <mxPoint x="390.59000000000015" y="830" as="targetPoint" />
            <Array as="points">
              <mxPoint x="320" y="910" />
            </Array>
          </mxGeometry>
        </mxCell>
        <mxCell id="zO58v0rqQoPorFve-_O9-83" value="" style="endArrow=classic;html=1;rounded=0;exitX=0.5;exitY=1;exitDx=0;exitDy=0;exitPerimeter=0;entryX=0;entryY=0.5;entryDx=0;entryDy=0;" edge="1" parent="1" source="zO58v0rqQoPorFve-_O9-32" target="zO58v0rqQoPorFve-_O9-70">
          <mxGeometry width="50" height="50" relative="1" as="geometry">
            <mxPoint x="390.0000000000001" y="790" as="sourcePoint" />
            <mxPoint x="390.59000000000015" y="830" as="targetPoint" />
            <Array as="points">
              <mxPoint x="320" y="1130" />
            </Array>
          </mxGeometry>
        </mxCell>
        <mxCell id="zO58v0rqQoPorFve-_O9-88" style="edgeStyle=orthogonalEdgeStyle;rounded=0;orthogonalLoop=1;jettySize=auto;html=1;exitX=0.5;exitY=1;exitDx=0;exitDy=0;entryX=0;entryY=0.5;entryDx=0;entryDy=0;" edge="1" parent="1" source="zO58v0rqQoPorFve-_O9-87" target="zO58v0rqQoPorFve-_O9-27">
          <mxGeometry relative="1" as="geometry" />
        </mxCell>
        <mxCell id="zO58v0rqQoPorFve-_O9-87" value="cout &amp;lt;&amp;lt; &quot;\xB3&quot;;" style="shape=parallelogram;html=1;strokeWidth=2;perimeter=parallelogramPerimeter;whiteSpace=wrap;rounded=1;arcSize=12;size=0.16666666666666666;" vertex="1" parent="1">
          <mxGeometry x="800" y="1360" width="160" height="40" as="geometry" />
        </mxCell>
        <mxCell id="zO58v0rqQoPorFve-_O9-90" style="edgeStyle=orthogonalEdgeStyle;rounded=0;orthogonalLoop=1;jettySize=auto;html=1;exitX=1;exitY=0.5;exitDx=0;exitDy=0;" edge="1" parent="1" source="zO58v0rqQoPorFve-_O9-89" target="zO58v0rqQoPorFve-_O9-91">
          <mxGeometry relative="1" as="geometry">
            <mxPoint x="650" y="490.38461538461524" as="targetPoint" />
          </mxGeometry>
        </mxCell>
        <mxCell id="zO58v0rqQoPorFve-_O9-89" value="cout &amp;lt;&amp;lt; endl;" style="shape=parallelogram;html=1;strokeWidth=2;perimeter=parallelogramPerimeter;whiteSpace=wrap;rounded=1;arcSize=12;size=0.16666666666666666;" vertex="1" parent="1">
          <mxGeometry x="470" y="470" width="160" height="40" as="geometry" />
        </mxCell>
        <mxCell id="zO58v0rqQoPorFve-_O9-100" style="edgeStyle=orthogonalEdgeStyle;rounded=0;orthogonalLoop=1;jettySize=auto;html=1;exitX=0.5;exitY=1;exitDx=0;exitDy=0;entryX=0.5;entryY=0;entryDx=0;entryDy=0;" edge="1" parent="1" source="zO58v0rqQoPorFve-_O9-91" target="zO58v0rqQoPorFve-_O9-94">
          <mxGeometry relative="1" as="geometry" />
        </mxCell>
        <mxCell id="zO58v0rqQoPorFve-_O9-91" value="cout &amp;lt;&amp;lt; &quot; \xC3&quot;;" style="shape=parallelogram;html=1;strokeWidth=2;perimeter=parallelogramPerimeter;whiteSpace=wrap;rounded=1;arcSize=12;size=0.16666666666666666;" vertex="1" parent="1">
          <mxGeometry x="640" y="470.00461538461525" width="160" height="40" as="geometry" />
        </mxCell>
        <mxCell id="zO58v0rqQoPorFve-_O9-92" style="edgeStyle=orthogonalEdgeStyle;rounded=0;orthogonalLoop=1;jettySize=auto;html=1;exitX=0.5;exitY=1;exitDx=0;exitDy=0;entryX=0;entryY=1;entryDx=0;entryDy=0;" edge="1" source="zO58v0rqQoPorFve-_O9-94" parent="1" target="zO58v0rqQoPorFve-_O9-96">
          <mxGeometry relative="1" as="geometry">
            <mxPoint x="720" y="610" as="targetPoint" />
          </mxGeometry>
        </mxCell>
        <mxCell id="zO58v0rqQoPorFve-_O9-93" style="edgeStyle=orthogonalEdgeStyle;rounded=0;orthogonalLoop=1;jettySize=auto;html=1;exitX=1;exitY=0.5;exitDx=0;exitDy=0;" edge="1" source="zO58v0rqQoPorFve-_O9-94" parent="1" target="zO58v0rqQoPorFve-_O9-105">
          <mxGeometry relative="1" as="geometry">
            <mxPoint x="920" y="640" as="targetPoint" />
            <Array as="points">
              <mxPoint x="920" y="550" />
              <mxPoint x="920" y="610" />
            </Array>
          </mxGeometry>
        </mxCell>
        <mxCell id="zO58v0rqQoPorFve-_O9-94" value="for (int j = 0; j &amp;lt; 7; ++j)" style="verticalLabelPosition=middle;verticalAlign=middle;html=1;shape=hexagon;perimeter=hexagonPerimeter2;arcSize=6;size=0.15;labelPosition=center;align=center;" vertex="1" parent="1">
          <mxGeometry x="620" y="530" width="200" height="40" as="geometry" />
        </mxCell>
        <mxCell id="zO58v0rqQoPorFve-_O9-95" value="1" style="text;html=1;strokeColor=none;fillColor=none;align=center;verticalAlign=middle;whiteSpace=wrap;rounded=0;" vertex="1" parent="1">
          <mxGeometry x="690" y="570" width="30" height="30" as="geometry" />
        </mxCell>
        <mxCell id="zO58v0rqQoPorFve-_O9-96" value="{" style="text;html=1;strokeColor=none;fillColor=none;align=center;verticalAlign=middle;whiteSpace=wrap;rounded=0;" vertex="1" parent="1">
          <mxGeometry x="720" y="570" width="30" height="30" as="geometry" />
        </mxCell>
        <mxCell id="zO58v0rqQoPorFve-_O9-97" value="0" style="text;html=1;strokeColor=none;fillColor=none;align=center;verticalAlign=middle;whiteSpace=wrap;rounded=0;" vertex="1" parent="1">
          <mxGeometry x="820" y="520" width="30" height="30" as="geometry" />
        </mxCell>
        <mxCell id="zO58v0rqQoPorFve-_O9-99" style="edgeStyle=orthogonalEdgeStyle;rounded=0;orthogonalLoop=1;jettySize=auto;html=1;exitX=0.5;exitY=1;exitDx=0;exitDy=0;entryX=0;entryY=0.5;entryDx=0;entryDy=0;" edge="1" parent="1" source="zO58v0rqQoPorFve-_O9-98" target="zO58v0rqQoPorFve-_O9-94">
          <mxGeometry relative="1" as="geometry">
            <Array as="points">
              <mxPoint x="720" y="660" />
              <mxPoint x="590" y="660" />
              <mxPoint x="590" y="550" />
            </Array>
          </mxGeometry>
        </mxCell>
        <mxCell id="zO58v0rqQoPorFve-_O9-98" value="cout &amp;lt;&amp;lt; &quot;\xC4\xC4\xC4\xC5&quot;;" style="shape=parallelogram;html=1;strokeWidth=2;perimeter=parallelogramPerimeter;whiteSpace=wrap;rounded=1;arcSize=12;size=0.16666666666666666;" vertex="1" parent="1">
          <mxGeometry x="610" y="600" width="220" height="40" as="geometry" />
        </mxCell>
        <mxCell id="zO58v0rqQoPorFve-_O9-101" value="{" style="text;html=1;strokeColor=none;fillColor=none;align=center;verticalAlign=middle;whiteSpace=wrap;rounded=0;" vertex="1" parent="1">
          <mxGeometry x="290" y="650" width="30" height="30" as="geometry" />
        </mxCell>
        <mxCell id="zO58v0rqQoPorFve-_O9-102" value="}" style="text;html=1;strokeColor=none;fillColor=none;align=center;verticalAlign=middle;whiteSpace=wrap;rounded=0;" vertex="1" parent="1">
          <mxGeometry x="880" y="1320" width="30" height="30" as="geometry" />
        </mxCell>
        <mxCell id="zO58v0rqQoPorFve-_O9-103" value="}" style="text;html=1;strokeColor=none;fillColor=none;align=center;verticalAlign=middle;whiteSpace=wrap;rounded=0;" vertex="1" parent="1">
          <mxGeometry x="880" y="1400" width="30" height="30" as="geometry" />
        </mxCell>
        <mxCell id="zO58v0rqQoPorFve-_O9-104" value="}" style="text;html=1;strokeColor=none;fillColor=none;align=center;verticalAlign=middle;whiteSpace=wrap;rounded=0;" vertex="1" parent="1">
          <mxGeometry x="720" y="640" width="30" height="30" as="geometry" />
        </mxCell>
        <mxCell id="zO58v0rqQoPorFve-_O9-106" style="edgeStyle=orthogonalEdgeStyle;rounded=0;orthogonalLoop=1;jettySize=auto;html=1;exitX=0.5;exitY=1;exitDx=0;exitDy=0;entryX=0;entryY=0.5;entryDx=0;entryDy=0;" edge="1" parent="1" source="zO58v0rqQoPorFve-_O9-105" target="zO58v0rqQoPorFve-_O9-19">
          <mxGeometry relative="1" as="geometry">
            <Array as="points">
              <mxPoint x="1000" y="700" />
              <mxPoint x="1000" y="1440" />
              <mxPoint x="180" y="1440" />
              <mxPoint x="180" y="390" />
            </Array>
          </mxGeometry>
        </mxCell>
        <mxCell id="zO58v0rqQoPorFve-_O9-105" value="cout &amp;lt;&amp;lt; &quot;\xC4\xC4\xC4\xB4&quot; &amp;lt;&amp;lt; endl;" style="shape=parallelogram;html=1;strokeWidth=2;perimeter=parallelogramPerimeter;whiteSpace=wrap;rounded=1;arcSize=12;size=0.16666666666666666;" vertex="1" parent="1">
          <mxGeometry x="780" y="660" width="280" height="40" as="geometry" />
        </mxCell>
        <mxCell id="zO58v0rqQoPorFve-_O9-107" value="}" style="text;html=1;strokeColor=none;fillColor=none;align=center;verticalAlign=middle;whiteSpace=wrap;rounded=0;" vertex="1" parent="1">
          <mxGeometry x="1000" y="700" width="30" height="30" as="geometry" />
        </mxCell>
        <mxCell id="zO58v0rqQoPorFve-_O9-108" style="edgeStyle=orthogonalEdgeStyle;rounded=0;orthogonalLoop=1;jettySize=auto;html=1;exitX=0.5;exitY=1;exitDx=0;exitDy=0;" edge="1" parent="1" source="zO58v0rqQoPorFve-_O9-109">
          <mxGeometry relative="1" as="geometry">
            <mxPoint x="1209.6470588235295" y="510" as="targetPoint" />
          </mxGeometry>
        </mxCell>
        <mxCell id="zO58v0rqQoPorFve-_O9-109" value="cout &amp;lt;&amp;lt; 1 &amp;lt;&amp;lt; &quot;\xB3&quot;;" style="shape=parallelogram;html=1;strokeWidth=2;perimeter=parallelogramPerimeter;whiteSpace=wrap;rounded=1;arcSize=12;size=0.16666666666666666;" vertex="1" parent="1">
          <mxGeometry x="1130" y="450" width="160" height="40" as="geometry" />
        </mxCell>
        <mxCell id="zO58v0rqQoPorFve-_O9-110" style="edgeStyle=orthogonalEdgeStyle;rounded=0;orthogonalLoop=1;jettySize=auto;html=1;exitX=0.5;exitY=1;exitDx=0;exitDy=0;" edge="1" parent="1" source="zO58v0rqQoPorFve-_O9-112">
          <mxGeometry relative="1" as="geometry">
            <mxPoint x="1210" y="590" as="targetPoint" />
          </mxGeometry>
        </mxCell>
        <mxCell id="zO58v0rqQoPorFve-_O9-111" style="edgeStyle=orthogonalEdgeStyle;rounded=0;orthogonalLoop=1;jettySize=auto;html=1;exitX=1;exitY=0.5;exitDx=0;exitDy=0;entryX=0;entryY=0.5;entryDx=0;entryDy=0;" edge="1" parent="1" source="zO58v0rqQoPorFve-_O9-112" target="zO58v0rqQoPorFve-_O9-165">
          <mxGeometry relative="1" as="geometry">
            <mxPoint x="1370" y="530" as="targetPoint" />
            <Array as="points" />
          </mxGeometry>
        </mxCell>
        <mxCell id="zO58v0rqQoPorFve-_O9-112" value="for (int j = 0; j &amp;lt; 8; ++j)" style="verticalLabelPosition=middle;verticalAlign=middle;html=1;shape=hexagon;perimeter=hexagonPerimeter2;arcSize=6;size=0.15;labelPosition=center;align=center;" vertex="1" parent="1">
          <mxGeometry x="1110" y="510" width="200" height="40" as="geometry" />
        </mxCell>
        <mxCell id="zO58v0rqQoPorFve-_O9-113" value="1" style="text;html=1;strokeColor=none;fillColor=none;align=center;verticalAlign=middle;whiteSpace=wrap;rounded=0;" vertex="1" parent="1">
          <mxGeometry x="1180" y="550" width="30" height="30" as="geometry" />
        </mxCell>
        <mxCell id="zO58v0rqQoPorFve-_O9-114" value="{" style="text;html=1;strokeColor=none;fillColor=none;align=center;verticalAlign=middle;whiteSpace=wrap;rounded=0;" vertex="1" parent="1">
          <mxGeometry x="1210" y="550" width="30" height="30" as="geometry" />
        </mxCell>
        <mxCell id="zO58v0rqQoPorFve-_O9-115" value="0" style="text;html=1;strokeColor=none;fillColor=none;align=center;verticalAlign=middle;whiteSpace=wrap;rounded=0;" vertex="1" parent="1">
          <mxGeometry x="1310" y="500" width="30" height="30" as="geometry" />
        </mxCell>
        <mxCell id="zO58v0rqQoPorFve-_O9-116" style="edgeStyle=orthogonalEdgeStyle;rounded=0;orthogonalLoop=1;jettySize=auto;html=1;exitX=0.5;exitY=1;exitDx=0;exitDy=0;exitPerimeter=0;entryX=0;entryY=0.5;entryDx=0;entryDy=0;" edge="1" parent="1" source="zO58v0rqQoPorFve-_O9-117" target="zO58v0rqQoPorFve-_O9-119">
          <mxGeometry relative="1" as="geometry">
            <mxPoint x="1205.4761904761904" y="809.9999999999995" as="targetPoint" />
          </mxGeometry>
        </mxCell>
        <mxCell id="zO58v0rqQoPorFve-_O9-117" value="switch" style="strokeWidth=2;html=1;shape=mxgraph.flowchart.decision;whiteSpace=wrap;" vertex="1" parent="1">
          <mxGeometry x="1115" y="589.9999999999995" width="190" height="60" as="geometry" />
        </mxCell>
        <mxCell id="zO58v0rqQoPorFve-_O9-118" style="edgeStyle=orthogonalEdgeStyle;rounded=0;orthogonalLoop=1;jettySize=auto;html=1;exitX=1;exitY=0.5;exitDx=0;exitDy=0;entryX=0.5;entryY=0;entryDx=0;entryDy=0;entryPerimeter=0;" edge="1" parent="1" source="zO58v0rqQoPorFve-_O9-119" target="zO58v0rqQoPorFve-_O9-122">
          <mxGeometry relative="1" as="geometry">
            <mxPoint x="1375" y="689.9999999999995" as="targetPoint" />
            <Array as="points">
              <mxPoint x="1530" y="690" />
            </Array>
          </mxGeometry>
        </mxCell>
        <mxCell id="zO58v0rqQoPorFve-_O9-119" value="case&amp;nbsp;0:" style="rounded=1;whiteSpace=wrap;html=1;absoluteArcSize=1;arcSize=14;strokeWidth=2;" vertex="1" parent="1">
          <mxGeometry x="1245" y="669.9999999999995" width="100" height="40" as="geometry" />
        </mxCell>
        <mxCell id="zO58v0rqQoPorFve-_O9-120" style="edgeStyle=orthogonalEdgeStyle;rounded=0;orthogonalLoop=1;jettySize=auto;html=1;exitX=0;exitY=0.5;exitDx=0;exitDy=0;exitPerimeter=0;entryX=0.5;entryY=0;entryDx=0;entryDy=0;" edge="1" parent="1" source="zO58v0rqQoPorFve-_O9-122" target="zO58v0rqQoPorFve-_O9-126">
          <mxGeometry relative="1" as="geometry">
            <mxPoint x="1385" y="770" as="targetPoint" />
          </mxGeometry>
        </mxCell>
        <mxCell id="zO58v0rqQoPorFve-_O9-121" style="edgeStyle=orthogonalEdgeStyle;rounded=0;orthogonalLoop=1;jettySize=auto;html=1;exitX=1;exitY=0.5;exitDx=0;exitDy=0;exitPerimeter=0;entryX=0.5;entryY=0;entryDx=0;entryDy=0;" edge="1" parent="1" source="zO58v0rqQoPorFve-_O9-122" target="zO58v0rqQoPorFve-_O9-128">
          <mxGeometry relative="1" as="geometry">
            <mxPoint x="1665" y="770" as="targetPoint" />
            <Array as="points">
              <mxPoint x="1670" y="730" />
            </Array>
          </mxGeometry>
        </mxCell>
        <mxCell id="zO58v0rqQoPorFve-_O9-122" value="if ((n == 6) &amp;amp;&amp;amp; (j == curs))" style="strokeWidth=2;html=1;shape=mxgraph.flowchart.decision;whiteSpace=wrap;" vertex="1" parent="1">
          <mxGeometry x="1430" y="700" width="200" height="60" as="geometry" />
        </mxCell>
        <mxCell id="zO58v0rqQoPorFve-_O9-123" value="1" style="text;html=1;strokeColor=none;fillColor=none;align=center;verticalAlign=middle;whiteSpace=wrap;rounded=0;" vertex="1" parent="1">
          <mxGeometry x="1395" y="700" width="30" height="30" as="geometry" />
        </mxCell>
        <mxCell id="zO58v0rqQoPorFve-_O9-124" value="0" style="text;html=1;strokeColor=none;fillColor=none;align=center;verticalAlign=middle;whiteSpace=wrap;rounded=0;" vertex="1" parent="1">
          <mxGeometry x="1625" y="700" width="30" height="30" as="geometry" />
        </mxCell>
        <mxCell id="zO58v0rqQoPorFve-_O9-125" style="edgeStyle=orthogonalEdgeStyle;rounded=0;orthogonalLoop=1;jettySize=auto;html=1;exitX=0.5;exitY=1;exitDx=0;exitDy=0;" edge="1" parent="1" source="zO58v0rqQoPorFve-_O9-126">
          <mxGeometry relative="1" as="geometry">
            <mxPoint x="1530" y="830" as="targetPoint" />
            <Array as="points">
              <mxPoint x="1390" y="830" />
            </Array>
          </mxGeometry>
        </mxCell>
        <mxCell id="zO58v0rqQoPorFve-_O9-126" value="cout &amp;lt;&amp;lt; &quot;[ ]&quot;;" style="shape=parallelogram;html=1;strokeWidth=2;perimeter=parallelogramPerimeter;whiteSpace=wrap;rounded=1;arcSize=12;size=0.16666666666666666;" vertex="1" parent="1">
          <mxGeometry x="1310" y="770" width="160" height="40" as="geometry" />
        </mxCell>
        <mxCell id="zO58v0rqQoPorFve-_O9-127" style="edgeStyle=orthogonalEdgeStyle;rounded=0;orthogonalLoop=1;jettySize=auto;html=1;exitX=0.5;exitY=1;exitDx=0;exitDy=0;" edge="1" parent="1" source="zO58v0rqQoPorFve-_O9-128">
          <mxGeometry relative="1" as="geometry">
            <mxPoint x="1530" y="830" as="targetPoint" />
            <Array as="points">
              <mxPoint x="1670" y="830" />
            </Array>
          </mxGeometry>
        </mxCell>
        <mxCell id="zO58v0rqQoPorFve-_O9-128" value="cout &amp;lt;&amp;lt; &quot;&amp;nbsp; &amp;nbsp;&quot;;" style="shape=parallelogram;html=1;strokeWidth=2;perimeter=parallelogramPerimeter;whiteSpace=wrap;rounded=1;arcSize=12;size=0.16666666666666666;" vertex="1" parent="1">
          <mxGeometry x="1590" y="770" width="160" height="40" as="geometry" />
        </mxCell>
        <mxCell id="zO58v0rqQoPorFve-_O9-129" value="" style="endArrow=classic;html=1;rounded=0;" edge="1" parent="1">
          <mxGeometry width="50" height="50" relative="1" as="geometry">
            <mxPoint x="1529.5800000000002" y="830" as="sourcePoint" />
            <mxPoint x="1530" y="850" as="targetPoint" />
          </mxGeometry>
        </mxCell>
        <mxCell id="zO58v0rqQoPorFve-_O9-130" style="edgeStyle=orthogonalEdgeStyle;rounded=0;orthogonalLoop=1;jettySize=auto;html=1;exitX=1;exitY=0.5;exitDx=0;exitDy=0;" edge="1" parent="1" source="zO58v0rqQoPorFve-_O9-131">
          <mxGeometry relative="1" as="geometry">
            <mxPoint x="1770" y="1360" as="targetPoint" />
          </mxGeometry>
        </mxCell>
        <mxCell id="zO58v0rqQoPorFve-_O9-131" value="break;" style="rounded=1;whiteSpace=wrap;html=1;absoluteArcSize=1;arcSize=14;strokeWidth=2;" vertex="1" parent="1">
          <mxGeometry x="1480" y="850" width="100" height="40" as="geometry" />
        </mxCell>
        <mxCell id="zO58v0rqQoPorFve-_O9-132" style="edgeStyle=orthogonalEdgeStyle;rounded=0;orthogonalLoop=1;jettySize=auto;html=1;exitX=1;exitY=0.5;exitDx=0;exitDy=0;entryX=0.5;entryY=0;entryDx=0;entryDy=0;entryPerimeter=0;" edge="1" parent="1" source="zO58v0rqQoPorFve-_O9-133" target="zO58v0rqQoPorFve-_O9-136">
          <mxGeometry relative="1" as="geometry">
            <mxPoint x="1375" y="909.9999999999995" as="targetPoint" />
            <Array as="points">
              <mxPoint x="1530" y="910" />
            </Array>
          </mxGeometry>
        </mxCell>
        <mxCell id="zO58v0rqQoPorFve-_O9-133" value="case 1:" style="rounded=1;whiteSpace=wrap;html=1;absoluteArcSize=1;arcSize=14;strokeWidth=2;" vertex="1" parent="1">
          <mxGeometry x="1245" y="889.9999999999995" width="100" height="40" as="geometry" />
        </mxCell>
        <mxCell id="zO58v0rqQoPorFve-_O9-134" style="edgeStyle=orthogonalEdgeStyle;rounded=0;orthogonalLoop=1;jettySize=auto;html=1;exitX=0;exitY=0.5;exitDx=0;exitDy=0;exitPerimeter=0;entryX=0.5;entryY=0;entryDx=0;entryDy=0;" edge="1" parent="1" source="zO58v0rqQoPorFve-_O9-136" target="zO58v0rqQoPorFve-_O9-140">
          <mxGeometry relative="1" as="geometry">
            <mxPoint x="1385" y="990" as="targetPoint" />
          </mxGeometry>
        </mxCell>
        <mxCell id="zO58v0rqQoPorFve-_O9-135" style="edgeStyle=orthogonalEdgeStyle;rounded=0;orthogonalLoop=1;jettySize=auto;html=1;exitX=1;exitY=0.5;exitDx=0;exitDy=0;exitPerimeter=0;entryX=0.5;entryY=0;entryDx=0;entryDy=0;" edge="1" parent="1" source="zO58v0rqQoPorFve-_O9-136" target="zO58v0rqQoPorFve-_O9-142">
          <mxGeometry relative="1" as="geometry">
            <mxPoint x="1665" y="990" as="targetPoint" />
            <Array as="points">
              <mxPoint x="1670" y="950" />
            </Array>
          </mxGeometry>
        </mxCell>
        <mxCell id="zO58v0rqQoPorFve-_O9-136" value="if ((n == 6) &amp;amp;&amp;amp; (j == curs))" style="strokeWidth=2;html=1;shape=mxgraph.flowchart.decision;whiteSpace=wrap;" vertex="1" parent="1">
          <mxGeometry x="1430" y="920" width="200" height="60" as="geometry" />
        </mxCell>
        <mxCell id="zO58v0rqQoPorFve-_O9-137" value="1" style="text;html=1;strokeColor=none;fillColor=none;align=center;verticalAlign=middle;whiteSpace=wrap;rounded=0;" vertex="1" parent="1">
          <mxGeometry x="1395" y="920" width="30" height="30" as="geometry" />
        </mxCell>
        <mxCell id="zO58v0rqQoPorFve-_O9-138" value="0" style="text;html=1;strokeColor=none;fillColor=none;align=center;verticalAlign=middle;whiteSpace=wrap;rounded=0;" vertex="1" parent="1">
          <mxGeometry x="1625" y="920" width="30" height="30" as="geometry" />
        </mxCell>
        <mxCell id="zO58v0rqQoPorFve-_O9-139" style="edgeStyle=orthogonalEdgeStyle;rounded=0;orthogonalLoop=1;jettySize=auto;html=1;exitX=0.5;exitY=1;exitDx=0;exitDy=0;" edge="1" parent="1" source="zO58v0rqQoPorFve-_O9-140">
          <mxGeometry relative="1" as="geometry">
            <mxPoint x="1530" y="1050" as="targetPoint" />
            <Array as="points">
              <mxPoint x="1390" y="1050" />
            </Array>
          </mxGeometry>
        </mxCell>
        <mxCell id="zO58v0rqQoPorFve-_O9-140" value="cout &amp;lt;&amp;lt; &quot;[\x78]&quot;;" style="shape=parallelogram;html=1;strokeWidth=2;perimeter=parallelogramPerimeter;whiteSpace=wrap;rounded=1;arcSize=12;size=0.16666666666666666;" vertex="1" parent="1">
          <mxGeometry x="1310" y="990" width="160" height="40" as="geometry" />
        </mxCell>
        <mxCell id="zO58v0rqQoPorFve-_O9-141" style="edgeStyle=orthogonalEdgeStyle;rounded=0;orthogonalLoop=1;jettySize=auto;html=1;exitX=0.5;exitY=1;exitDx=0;exitDy=0;" edge="1" parent="1" source="zO58v0rqQoPorFve-_O9-142">
          <mxGeometry relative="1" as="geometry">
            <mxPoint x="1530" y="1050" as="targetPoint" />
            <Array as="points">
              <mxPoint x="1670" y="1050" />
            </Array>
          </mxGeometry>
        </mxCell>
        <mxCell id="zO58v0rqQoPorFve-_O9-142" value="else cout &amp;lt;&amp;lt; &quot; \x78 &quot;;" style="shape=parallelogram;html=1;strokeWidth=2;perimeter=parallelogramPerimeter;whiteSpace=wrap;rounded=1;arcSize=12;size=0.16666666666666666;" vertex="1" parent="1">
          <mxGeometry x="1590" y="990" width="160" height="40" as="geometry" />
        </mxCell>
        <mxCell id="zO58v0rqQoPorFve-_O9-143" value="" style="endArrow=classic;html=1;rounded=0;" edge="1" parent="1">
          <mxGeometry width="50" height="50" relative="1" as="geometry">
            <mxPoint x="1529.5800000000002" y="1050" as="sourcePoint" />
            <mxPoint x="1530" y="1070" as="targetPoint" />
          </mxGeometry>
        </mxCell>
        <mxCell id="zO58v0rqQoPorFve-_O9-144" style="edgeStyle=orthogonalEdgeStyle;rounded=0;orthogonalLoop=1;jettySize=auto;html=1;exitX=1;exitY=0.5;exitDx=0;exitDy=0;" edge="1" parent="1" source="zO58v0rqQoPorFve-_O9-145">
          <mxGeometry relative="1" as="geometry">
            <mxPoint x="1770" y="1360" as="targetPoint" />
          </mxGeometry>
        </mxCell>
        <mxCell id="zO58v0rqQoPorFve-_O9-145" value="break;" style="rounded=1;whiteSpace=wrap;html=1;absoluteArcSize=1;arcSize=14;strokeWidth=2;" vertex="1" parent="1">
          <mxGeometry x="1480" y="1070" width="100" height="40" as="geometry" />
        </mxCell>
        <mxCell id="zO58v0rqQoPorFve-_O9-146" style="edgeStyle=orthogonalEdgeStyle;rounded=0;orthogonalLoop=1;jettySize=auto;html=1;exitX=1;exitY=0.5;exitDx=0;exitDy=0;entryX=0.5;entryY=0;entryDx=0;entryDy=0;entryPerimeter=0;" edge="1" parent="1" source="zO58v0rqQoPorFve-_O9-147" target="zO58v0rqQoPorFve-_O9-150">
          <mxGeometry relative="1" as="geometry">
            <mxPoint x="1375" y="1129.9999999999995" as="targetPoint" />
            <Array as="points">
              <mxPoint x="1530" y="1130" />
            </Array>
          </mxGeometry>
        </mxCell>
        <mxCell id="zO58v0rqQoPorFve-_O9-147" value="case 8:" style="rounded=1;whiteSpace=wrap;html=1;absoluteArcSize=1;arcSize=14;strokeWidth=2;" vertex="1" parent="1">
          <mxGeometry x="1245" y="1109.9999999999995" width="100" height="40" as="geometry" />
        </mxCell>
        <mxCell id="zO58v0rqQoPorFve-_O9-148" style="edgeStyle=orthogonalEdgeStyle;rounded=0;orthogonalLoop=1;jettySize=auto;html=1;exitX=0;exitY=0.5;exitDx=0;exitDy=0;exitPerimeter=0;entryX=0.5;entryY=0;entryDx=0;entryDy=0;" edge="1" parent="1" source="zO58v0rqQoPorFve-_O9-150" target="zO58v0rqQoPorFve-_O9-154">
          <mxGeometry relative="1" as="geometry">
            <mxPoint x="1385" y="1210" as="targetPoint" />
          </mxGeometry>
        </mxCell>
        <mxCell id="zO58v0rqQoPorFve-_O9-149" style="edgeStyle=orthogonalEdgeStyle;rounded=0;orthogonalLoop=1;jettySize=auto;html=1;exitX=1;exitY=0.5;exitDx=0;exitDy=0;exitPerimeter=0;entryX=0.5;entryY=0;entryDx=0;entryDy=0;" edge="1" parent="1" source="zO58v0rqQoPorFve-_O9-150" target="zO58v0rqQoPorFve-_O9-156">
          <mxGeometry relative="1" as="geometry">
            <mxPoint x="1665" y="1210" as="targetPoint" />
            <Array as="points">
              <mxPoint x="1670" y="1170" />
            </Array>
          </mxGeometry>
        </mxCell>
        <mxCell id="zO58v0rqQoPorFve-_O9-150" value="if ((n == 6) &amp;amp;&amp;amp; (j == curs))" style="strokeWidth=2;html=1;shape=mxgraph.flowchart.decision;whiteSpace=wrap;" vertex="1" parent="1">
          <mxGeometry x="1430" y="1140" width="200" height="60" as="geometry" />
        </mxCell>
        <mxCell id="zO58v0rqQoPorFve-_O9-151" value="1" style="text;html=1;strokeColor=none;fillColor=none;align=center;verticalAlign=middle;whiteSpace=wrap;rounded=0;" vertex="1" parent="1">
          <mxGeometry x="1395" y="1140" width="30" height="30" as="geometry" />
        </mxCell>
        <mxCell id="zO58v0rqQoPorFve-_O9-152" value="0" style="text;html=1;strokeColor=none;fillColor=none;align=center;verticalAlign=middle;whiteSpace=wrap;rounded=0;" vertex="1" parent="1">
          <mxGeometry x="1625" y="1140" width="30" height="30" as="geometry" />
        </mxCell>
        <mxCell id="zO58v0rqQoPorFve-_O9-153" style="edgeStyle=orthogonalEdgeStyle;rounded=0;orthogonalLoop=1;jettySize=auto;html=1;exitX=0.5;exitY=1;exitDx=0;exitDy=0;" edge="1" parent="1" source="zO58v0rqQoPorFve-_O9-154">
          <mxGeometry relative="1" as="geometry">
            <mxPoint x="1530" y="1270" as="targetPoint" />
            <Array as="points">
              <mxPoint x="1390" y="1270" />
            </Array>
          </mxGeometry>
        </mxCell>
        <mxCell id="zO58v0rqQoPorFve-_O9-154" value="cout &amp;lt;&amp;lt; &quot;[\x51]&quot;;" style="shape=parallelogram;html=1;strokeWidth=2;perimeter=parallelogramPerimeter;whiteSpace=wrap;rounded=1;arcSize=12;size=0.16666666666666666;" vertex="1" parent="1">
          <mxGeometry x="1310" y="1210" width="160" height="40" as="geometry" />
        </mxCell>
        <mxCell id="zO58v0rqQoPorFve-_O9-155" style="edgeStyle=orthogonalEdgeStyle;rounded=0;orthogonalLoop=1;jettySize=auto;html=1;exitX=0.5;exitY=1;exitDx=0;exitDy=0;" edge="1" parent="1" source="zO58v0rqQoPorFve-_O9-156">
          <mxGeometry relative="1" as="geometry">
            <mxPoint x="1530" y="1270" as="targetPoint" />
            <Array as="points">
              <mxPoint x="1670" y="1270" />
            </Array>
          </mxGeometry>
        </mxCell>
        <mxCell id="zO58v0rqQoPorFve-_O9-156" value="else cout &amp;lt;&amp;lt; &quot;&amp;nbsp;\x51&amp;nbsp;&quot;;" style="shape=parallelogram;html=1;strokeWidth=2;perimeter=parallelogramPerimeter;whiteSpace=wrap;rounded=1;arcSize=12;size=0.16666666666666666;" vertex="1" parent="1">
          <mxGeometry x="1590" y="1210" width="160" height="40" as="geometry" />
        </mxCell>
        <mxCell id="zO58v0rqQoPorFve-_O9-157" value="" style="endArrow=classic;html=1;rounded=0;" edge="1" parent="1">
          <mxGeometry width="50" height="50" relative="1" as="geometry">
            <mxPoint x="1529.5800000000002" y="1270" as="sourcePoint" />
            <mxPoint x="1530" y="1290" as="targetPoint" />
          </mxGeometry>
        </mxCell>
        <mxCell id="zO58v0rqQoPorFve-_O9-158" style="edgeStyle=orthogonalEdgeStyle;rounded=0;orthogonalLoop=1;jettySize=auto;html=1;exitX=1;exitY=0.5;exitDx=0;exitDy=0;" edge="1" parent="1" source="zO58v0rqQoPorFve-_O9-159">
          <mxGeometry relative="1" as="geometry">
            <mxPoint x="1770" y="1360" as="targetPoint" />
          </mxGeometry>
        </mxCell>
        <mxCell id="zO58v0rqQoPorFve-_O9-159" value="break;" style="rounded=1;whiteSpace=wrap;html=1;absoluteArcSize=1;arcSize=14;strokeWidth=2;" vertex="1" parent="1">
          <mxGeometry x="1480" y="1290" width="100" height="40" as="geometry" />
        </mxCell>
        <mxCell id="zO58v0rqQoPorFve-_O9-160" value="" style="endArrow=classic;html=1;rounded=0;exitX=0.5;exitY=1;exitDx=0;exitDy=0;exitPerimeter=0;entryX=0;entryY=0.5;entryDx=0;entryDy=0;" edge="1" parent="1" source="zO58v0rqQoPorFve-_O9-117" target="zO58v0rqQoPorFve-_O9-133">
          <mxGeometry width="50" height="50" relative="1" as="geometry">
            <mxPoint x="1280" y="790" as="sourcePoint" />
            <mxPoint x="1280.5900000000001" y="830" as="targetPoint" />
            <Array as="points">
              <mxPoint x="1210" y="910" />
            </Array>
          </mxGeometry>
        </mxCell>
        <mxCell id="zO58v0rqQoPorFve-_O9-161" value="" style="endArrow=classic;html=1;rounded=0;exitX=0.5;exitY=1;exitDx=0;exitDy=0;exitPerimeter=0;entryX=0;entryY=0.5;entryDx=0;entryDy=0;" edge="1" parent="1" source="zO58v0rqQoPorFve-_O9-117" target="zO58v0rqQoPorFve-_O9-147">
          <mxGeometry width="50" height="50" relative="1" as="geometry">
            <mxPoint x="1280" y="790" as="sourcePoint" />
            <mxPoint x="1280.5900000000001" y="830" as="targetPoint" />
            <Array as="points">
              <mxPoint x="1210" y="1130" />
            </Array>
          </mxGeometry>
        </mxCell>
        <mxCell id="zO58v0rqQoPorFve-_O9-162" style="edgeStyle=orthogonalEdgeStyle;rounded=0;orthogonalLoop=1;jettySize=auto;html=1;exitX=0.5;exitY=1;exitDx=0;exitDy=0;entryX=0;entryY=0.5;entryDx=0;entryDy=0;" edge="1" parent="1" source="zO58v0rqQoPorFve-_O9-163" target="zO58v0rqQoPorFve-_O9-112">
          <mxGeometry relative="1" as="geometry" />
        </mxCell>
        <mxCell id="zO58v0rqQoPorFve-_O9-163" value="cout &amp;lt;&amp;lt; &quot;\xB3&quot;;" style="shape=parallelogram;html=1;strokeWidth=2;perimeter=parallelogramPerimeter;whiteSpace=wrap;rounded=1;arcSize=12;size=0.16666666666666666;" vertex="1" parent="1">
          <mxGeometry x="1690" y="1360" width="160" height="40" as="geometry" />
        </mxCell>
        <mxCell id="zO58v0rqQoPorFve-_O9-164" style="edgeStyle=orthogonalEdgeStyle;rounded=0;orthogonalLoop=1;jettySize=auto;html=1;exitX=1;exitY=0.5;exitDx=0;exitDy=0;" edge="1" parent="1" source="zO58v0rqQoPorFve-_O9-165" target="zO58v0rqQoPorFve-_O9-167">
          <mxGeometry relative="1" as="geometry">
            <mxPoint x="1540" y="490.38461538461524" as="targetPoint" />
          </mxGeometry>
        </mxCell>
        <mxCell id="zO58v0rqQoPorFve-_O9-165" value="cout &amp;lt;&amp;lt; endl;" style="shape=parallelogram;html=1;strokeWidth=2;perimeter=parallelogramPerimeter;whiteSpace=wrap;rounded=1;arcSize=12;size=0.16666666666666666;" vertex="1" parent="1">
          <mxGeometry x="1360" y="470" width="160" height="40" as="geometry" />
        </mxCell>
        <mxCell id="zO58v0rqQoPorFve-_O9-166" style="edgeStyle=orthogonalEdgeStyle;rounded=0;orthogonalLoop=1;jettySize=auto;html=1;exitX=0.5;exitY=1;exitDx=0;exitDy=0;entryX=0.5;entryY=0;entryDx=0;entryDy=0;" edge="1" parent="1" source="zO58v0rqQoPorFve-_O9-167" target="zO58v0rqQoPorFve-_O9-170">
          <mxGeometry relative="1" as="geometry" />
        </mxCell>
        <mxCell id="zO58v0rqQoPorFve-_O9-167" value="cout &amp;lt;&amp;lt; &quot; \xC0&quot;;" style="shape=parallelogram;html=1;strokeWidth=2;perimeter=parallelogramPerimeter;whiteSpace=wrap;rounded=1;arcSize=12;size=0.16666666666666666;" vertex="1" parent="1">
          <mxGeometry x="1530" y="470.00461538461525" width="160" height="40" as="geometry" />
        </mxCell>
        <mxCell id="zO58v0rqQoPorFve-_O9-168" style="edgeStyle=orthogonalEdgeStyle;rounded=0;orthogonalLoop=1;jettySize=auto;html=1;exitX=0.5;exitY=1;exitDx=0;exitDy=0;entryX=0;entryY=1;entryDx=0;entryDy=0;" edge="1" parent="1" source="zO58v0rqQoPorFve-_O9-170" target="zO58v0rqQoPorFve-_O9-172">
          <mxGeometry relative="1" as="geometry">
            <mxPoint x="1610" y="610" as="targetPoint" />
          </mxGeometry>
        </mxCell>
        <mxCell id="zO58v0rqQoPorFve-_O9-169" style="edgeStyle=orthogonalEdgeStyle;rounded=0;orthogonalLoop=1;jettySize=auto;html=1;exitX=1;exitY=0.5;exitDx=0;exitDy=0;" edge="1" parent="1" source="zO58v0rqQoPorFve-_O9-170" target="zO58v0rqQoPorFve-_O9-180">
          <mxGeometry relative="1" as="geometry">
            <mxPoint x="1810" y="640" as="targetPoint" />
            <Array as="points">
              <mxPoint x="1850" y="550" />
            </Array>
          </mxGeometry>
        </mxCell>
        <mxCell id="zO58v0rqQoPorFve-_O9-170" value="for (int j = 0; j &amp;lt; 7; ++j)" style="verticalLabelPosition=middle;verticalAlign=middle;html=1;shape=hexagon;perimeter=hexagonPerimeter2;arcSize=6;size=0.15;labelPosition=center;align=center;" vertex="1" parent="1">
          <mxGeometry x="1510" y="530" width="200" height="40" as="geometry" />
        </mxCell>
        <mxCell id="zO58v0rqQoPorFve-_O9-171" value="1" style="text;html=1;strokeColor=none;fillColor=none;align=center;verticalAlign=middle;whiteSpace=wrap;rounded=0;" vertex="1" parent="1">
          <mxGeometry x="1580" y="570" width="30" height="30" as="geometry" />
        </mxCell>
        <mxCell id="zO58v0rqQoPorFve-_O9-172" value="{" style="text;html=1;strokeColor=none;fillColor=none;align=center;verticalAlign=middle;whiteSpace=wrap;rounded=0;" vertex="1" parent="1">
          <mxGeometry x="1610" y="570" width="30" height="30" as="geometry" />
        </mxCell>
        <mxCell id="zO58v0rqQoPorFve-_O9-173" value="0" style="text;html=1;strokeColor=none;fillColor=none;align=center;verticalAlign=middle;whiteSpace=wrap;rounded=0;" vertex="1" parent="1">
          <mxGeometry x="1710" y="520" width="30" height="30" as="geometry" />
        </mxCell>
        <mxCell id="zO58v0rqQoPorFve-_O9-174" style="edgeStyle=orthogonalEdgeStyle;rounded=0;orthogonalLoop=1;jettySize=auto;html=1;exitX=0.5;exitY=1;exitDx=0;exitDy=0;entryX=0;entryY=0.5;entryDx=0;entryDy=0;" edge="1" parent="1" source="zO58v0rqQoPorFve-_O9-175" target="zO58v0rqQoPorFve-_O9-170">
          <mxGeometry relative="1" as="geometry">
            <Array as="points">
              <mxPoint x="1610" y="660" />
              <mxPoint x="1480" y="660" />
              <mxPoint x="1480" y="550" />
            </Array>
          </mxGeometry>
        </mxCell>
        <mxCell id="zO58v0rqQoPorFve-_O9-175" value="cout &amp;lt;&amp;lt; &quot;\xC4\xC4\xC4\xC1&quot;;" style="shape=parallelogram;html=1;strokeWidth=2;perimeter=parallelogramPerimeter;whiteSpace=wrap;rounded=1;arcSize=12;size=0.16666666666666666;" vertex="1" parent="1">
          <mxGeometry x="1500" y="600" width="220" height="40" as="geometry" />
        </mxCell>
        <mxCell id="zO58v0rqQoPorFve-_O9-176" value="{" style="text;html=1;strokeColor=none;fillColor=none;align=center;verticalAlign=middle;whiteSpace=wrap;rounded=0;" vertex="1" parent="1">
          <mxGeometry x="1180" y="650" width="30" height="30" as="geometry" />
        </mxCell>
        <mxCell id="zO58v0rqQoPorFve-_O9-177" value="}" style="text;html=1;strokeColor=none;fillColor=none;align=center;verticalAlign=middle;whiteSpace=wrap;rounded=0;" vertex="1" parent="1">
          <mxGeometry x="1770" y="1320" width="30" height="30" as="geometry" />
        </mxCell>
        <mxCell id="zO58v0rqQoPorFve-_O9-178" value="}" style="text;html=1;strokeColor=none;fillColor=none;align=center;verticalAlign=middle;whiteSpace=wrap;rounded=0;" vertex="1" parent="1">
          <mxGeometry x="1770" y="1400" width="30" height="30" as="geometry" />
        </mxCell>
        <mxCell id="zO58v0rqQoPorFve-_O9-179" value="}" style="text;html=1;strokeColor=none;fillColor=none;align=center;verticalAlign=middle;whiteSpace=wrap;rounded=0;" vertex="1" parent="1">
          <mxGeometry x="1610" y="640" width="30" height="30" as="geometry" />
        </mxCell>
        <mxCell id="zO58v0rqQoPorFve-_O9-182" style="edgeStyle=orthogonalEdgeStyle;rounded=0;orthogonalLoop=1;jettySize=auto;html=1;exitX=0.5;exitY=1;exitDx=0;exitDy=0;entryX=0.5;entryY=0;entryDx=0;entryDy=0;" edge="1" parent="1" source="zO58v0rqQoPorFve-_O9-180" target="zO58v0rqQoPorFve-_O9-183">
          <mxGeometry relative="1" as="geometry">
            <mxPoint x="1810" y="730" as="targetPoint" />
          </mxGeometry>
        </mxCell>
        <mxCell id="zO58v0rqQoPorFve-_O9-180" value="cout &amp;lt;&amp;lt; &quot;\xC4\xC4\xC4\xD9&quot; &amp;lt;&amp;lt; endl;" style="shape=parallelogram;html=1;strokeWidth=2;perimeter=parallelogramPerimeter;whiteSpace=wrap;rounded=1;arcSize=12;size=0.16666666666666666;" vertex="1" parent="1">
          <mxGeometry x="1710" y="660" width="280" height="40" as="geometry" />
        </mxCell>
        <mxCell id="zO58v0rqQoPorFve-_O9-181" value="}" style="text;html=1;strokeColor=none;fillColor=none;align=center;verticalAlign=middle;whiteSpace=wrap;rounded=0;" vertex="1" parent="1">
          <mxGeometry x="1930" y="740" width="30" height="30" as="geometry" />
        </mxCell>
        <mxCell id="zO58v0rqQoPorFve-_O9-183" value="cout &amp;lt;&amp;lt; endl;" style="shape=parallelogram;html=1;strokeWidth=2;perimeter=parallelogramPerimeter;whiteSpace=wrap;rounded=1;arcSize=12;size=0.16666666666666666;" vertex="1" parent="1">
          <mxGeometry x="1770" y="730" width="160" height="40" as="geometry" />
        </mxCell>
        <mxCell id="zO58v0rqQoPorFve-_O9-185" style="edgeStyle=orthogonalEdgeStyle;rounded=0;orthogonalLoop=1;jettySize=auto;html=1;exitX=0.5;exitY=1;exitDx=0;exitDy=0;" edge="1" parent="1" source="zO58v0rqQoPorFve-_O9-184">
          <mxGeometry relative="1" as="geometry">
            <mxPoint x="850.2352941176471" y="90" as="targetPoint" />
          </mxGeometry>
        </mxCell>
        <mxCell id="zO58v0rqQoPorFve-_O9-184" value="void desk_print_all()" style="ellipse;whiteSpace=wrap;html=1;" vertex="1" parent="1">
          <mxGeometry x="750" y="20" width="200" height="40" as="geometry" />
        </mxCell>
        <mxCell id="zO58v0rqQoPorFve-_O9-186" style="edgeStyle=orthogonalEdgeStyle;rounded=0;orthogonalLoop=1;jettySize=auto;html=1;exitX=0.5;exitY=1;exitDx=0;exitDy=0;" edge="1" source="zO58v0rqQoPorFve-_O9-188" parent="1">
          <mxGeometry relative="1" as="geometry">
            <mxPoint x="850" y="170" as="targetPoint" />
          </mxGeometry>
        </mxCell>
        <mxCell id="zO58v0rqQoPorFve-_O9-187" style="edgeStyle=orthogonalEdgeStyle;rounded=0;orthogonalLoop=1;jettySize=auto;html=1;exitX=1;exitY=0.5;exitDx=0;exitDy=0;" edge="1" source="zO58v0rqQoPorFve-_O9-188" parent="1">
          <mxGeometry relative="1" as="geometry">
            <mxPoint x="990" y="170" as="targetPoint" />
            <Array as="points">
              <mxPoint x="990" y="110" />
            </Array>
          </mxGeometry>
        </mxCell>
        <mxCell id="zO58v0rqQoPorFve-_O9-188" value="for (int n = 0; n &amp;lt; 8; ++n)" style="verticalLabelPosition=middle;verticalAlign=middle;html=1;shape=hexagon;perimeter=hexagonPerimeter2;arcSize=6;size=0.15;labelPosition=center;align=center;" vertex="1" parent="1">
          <mxGeometry x="750" y="90" width="200" height="40" as="geometry" />
        </mxCell>
        <mxCell id="zO58v0rqQoPorFve-_O9-189" value="1" style="text;html=1;strokeColor=none;fillColor=none;align=center;verticalAlign=middle;whiteSpace=wrap;rounded=0;" vertex="1" parent="1">
          <mxGeometry x="820" y="130" width="30" height="30" as="geometry" />
        </mxCell>
        <mxCell id="zO58v0rqQoPorFve-_O9-190" value="{" style="text;html=1;strokeColor=none;fillColor=none;align=center;verticalAlign=middle;whiteSpace=wrap;rounded=0;" vertex="1" parent="1">
          <mxGeometry x="850" y="130" width="30" height="30" as="geometry" />
        </mxCell>
        <mxCell id="zO58v0rqQoPorFve-_O9-191" value="0" style="text;html=1;strokeColor=none;fillColor=none;align=center;verticalAlign=middle;whiteSpace=wrap;rounded=0;" vertex="1" parent="1">
          <mxGeometry x="950" y="80" width="30" height="30" as="geometry" />
        </mxCell>
        <mxCell id="zO58v0rqQoPorFve-_O9-193" style="edgeStyle=orthogonalEdgeStyle;rounded=0;orthogonalLoop=1;jettySize=auto;html=1;exitX=0.5;exitY=1;exitDx=0;exitDy=0;entryX=0;entryY=0.5;entryDx=0;entryDy=0;" edge="1" parent="1" source="zO58v0rqQoPorFve-_O9-192" target="zO58v0rqQoPorFve-_O9-188">
          <mxGeometry relative="1" as="geometry" />
        </mxCell>
        <mxCell id="zO58v0rqQoPorFve-_O9-192" value="desk_print(n, - 1);" style="shape=parallelogram;html=1;strokeWidth=2;perimeter=parallelogramPerimeter;whiteSpace=wrap;rounded=1;arcSize=12;size=0.16666666666666666;" vertex="1" parent="1">
          <mxGeometry x="770" y="170" width="160" height="40" as="geometry" />
        </mxCell>
        <mxCell id="zO58v0rqQoPorFve-_O9-194" value="}" style="text;html=1;strokeColor=none;fillColor=none;align=center;verticalAlign=middle;whiteSpace=wrap;rounded=0;" vertex="1" parent="1">
          <mxGeometry x="320" y="320" width="30" height="30" as="geometry" />
        </mxCell>
        <mxCell id="zO58v0rqQoPorFve-_O9-195" value="}" style="text;html=1;strokeColor=none;fillColor=none;align=center;verticalAlign=middle;whiteSpace=wrap;rounded=0;" vertex="1" parent="1">
          <mxGeometry x="850" y="210" width="30" height="30" as="geometry" />
        </mxCell>
        <mxCell id="zO58v0rqQoPorFve-_O9-199" value="}" style="text;html=1;strokeColor=none;fillColor=none;align=center;verticalAlign=middle;whiteSpace=wrap;rounded=0;" vertex="1" parent="1">
          <mxGeometry x="990" y="140" width="30" height="30" as="geometry" />
        </mxCell>
      </root>
    </mxGraphModel>
  </diagram>
</mxfile>
